<?xml version="1.0" standalone="no"?>
<!DOCTYPE svg PUBLIC "-//W3C//DTD SVG 20010904//EN"
 "http://www.w3.org/TR/2001/REC-SVG-20010904/DTD/svg10.dtd">
<svg version="1.0" xmlns="http://www.w3.org/2000/svg"
 width="200.000000pt" height="240.000000pt" viewBox="0 0 200.000000 240.000000"
 preserveAspectRatio="xMidYMid meet">

<g transform="translate(0.000000,240.000000) scale(0.100000,-0.100000)"
fill="#000000" stroke="none">
<path d="M983 2278 c-6 -7 -122 -245 -258 -528 -136 -283 -337 -701 -446 -927
-110 -227 -199 -422 -199 -432 0 -11 6 -23 12 -28 7 -4 211 -71 453 -148 373
-120 442 -139 451 -127 9 13 12 13 17 0 4 -13 83 9 450 127 245 78 450 145
456 149 26 17 58 -53 -617 1346 -170 351 -284 576 -293 578 -9 2 -20 -3 -26
-10z m113 -295 c80 -167 85 -180 75 -213 -23 -76 -157 -404 -166 -407 -11 -3
-175 406 -175 435 0 19 166 362 175 362 3 0 45 -80 91 -177z m-212 -516 c76
-193 92 -225 106 -217 9 5 22 5 30 0 14 -9 29 24 150 339 24 61 47 111 52 111
10 0 48 -77 413 -835 109 -225 202 -416 208 -423 5 -7 8 -15 5 -17 -6 -7 -829
-266 -848 -267 -12 -1 -730 230 -815 262 l-24 9 31 63 c36 73 331 684 481 996
56 116 106 211 112 209 5 -2 50 -105 99 -230z"/>
<path d="M850 776 l0 -236 35 0 35 0 0 83 c0 75 2 86 24 106 l24 23 29 -44
c16 -24 46 -71 67 -106 36 -59 39 -62 77 -62 21 0 39 2 39 5 0 2 -31 53 -68
112 -107 168 -105 140 -18 248 42 52 76 97 76 100 0 8 -63 6 -76 -3 -5 -4 -46
-52 -90 -107 l-79 -100 -5 105 -5 105 -32 3 -33 3 0 -235z"/>
<path d="M1291 867 c-91 -46 -104 -236 -23 -310 46 -42 139 -28 176 25 37 52
-1 74 -45 27 -25 -27 -34 -30 -62 -25 -17 4 -38 12 -45 19 -30 31 -30 173 1
204 7 7 27 15 44 19 26 5 37 1 58 -20 31 -31 62 -31 57 -1 -5 28 -22 46 -59
62 -40 16 -71 16 -102 0z"/>
<path d="M542 736 c3 -118 6 -138 24 -163 44 -58 140 -55 181 6 21 31 23 45
23 162 l0 129 -25 0 -25 0 0 -119 c0 -105 -2 -121 -21 -145 -12 -15 -30 -26
-44 -26 -14 0 -32 11 -44 26 -19 24 -21 40 -21 145 l0 119 -26 0 -26 0 4 -134z"/>
</g>
</svg>
